# xmcd
#
# Track frame offsets:
#	150
#	18564
#	56770
#	89564
#	129699
#	165252
#	196736
#	230110
#
# Disc length: 3339 seconds
#
# Revision: 0
# Processed by: cddbd v1.5.2PL0 Copyright (c) Steve Scherf et al.
# Submitted via: audiograbber 1.83.01
#
DISCID=680d0908
DTITLE=Grateful Dead - 93-03-29 Knickerbocker Arena, Albany NY
DYEAR=1900
DGENRE=
TTITLE0=Let The Good Times Roll
TTITLE1=Feel Like A Stranger
TTITLE2=Loser
TTITLE3=Little Red Rooster
TTITLE4=Ramble On Rose
TTITLE5=Black Throated Wind
TTITLE6=Lazy River Road
TTITLE7=Johnny B Goode
EXTD=
EXTT0=
EXTT1=
EXTT2=
EXTT3=
EXTT4=
EXTT5=
EXTT6=
EXTT7=
PLAYORDER=
